<?xml version="1.0" standalone="no"?>
<!DOCTYPE svg PUBLIC "-//W3C//DTD SVG 1.1//EN" "http://www.w3.org/Graphics/SVG/1.1/DTD/svg11.dtd" >
<svg xmlns="http://www.w3.org/2000/svg">
<metadata>Generated by IcoMoon</metadata>
<defs>
<font id="icomoon" horiz-adv-x="1024">
<font-face units-per-em="1024" ascent="960" descent="-64" />
<missing-glyph horiz-adv-x="1024" />
<glyph unicode="&#x20;" horiz-adv-x="512" d="" />
<glyph unicode="&#xe600;" d="M695.911 616.090c0-0.023 0-0.041 0-0.066 0-118.026-95.679-213.706-213.706-213.706s-213.706 95.679-213.706 213.706c0 0.025 0 0.044 0 0.069 0 0.013 0 0.038 0 0.063 0 118.026 95.679 213.706 213.706 213.706s213.706-95.679 213.706-213.706c0-0.025 0-0.044 0-0.069z" />
<glyph unicode="&#xe601;" d="M587.363 621.176c0-55.267-44.802-100.068-100.068-100.068s-100.068 44.802-100.068 100.068c0 55.267 44.802 100.068 100.068 100.068s100.068-44.802 100.068-100.068z" />
<glyph unicode="&#xe602;" d="M451.677 897.638h78.019v-84.803h-78.019v84.803z" />
<glyph unicode="&#xe603;" d="M451.677 341.321h78.019v84.803h-78.019v-84.803z" />
<glyph unicode="&#xe604;" d="M288.853 646.619v-78.019h-84.803v78.019h84.803z" />
<glyph unicode="&#xe605;" d="M768.419 646.619v-78.019h-84.803v78.019h84.803z" />
<glyph unicode="&#xe606;" d="M358.341 787.58l-52.638-57.587-62.596 57.216 52.638 57.587 62.596-57.216z" />
<glyph unicode="&#xe607;" d="M728.087 455.146l-52.638-57.587-62.596 57.216 52.638 57.587 62.596-57.216z" />
<glyph unicode="&#xe608;" d="M667.265 726.382l-57.587 52.638 57.216 62.596 57.587-52.638-57.216-62.596z" />
<glyph unicode="&#xe609;" d="M304.305 383.775l-57.587 52.638 57.216 62.596 57.587-52.638-57.216-62.596z" />
<glyph unicode="&#xe60a;" d="M855.136 230.199c-0.001-0.009-0.003-0.028-0.004-0.039-8.874-72.145-74.554-123.432-146.696-114.558s-123.432 74.554-114.558 146.696c0.001 0.011 0.003 0.029 0.004 0.041 0.001 0.008 0.002 0.026 0.004 0.037 8.874 72.145 74.554 123.432 146.696 114.558s123.432-74.554 114.558-146.696c-0.001-0.011-0.003-0.029-0.004-0.041z" />
<glyph unicode="&#xe60b;" d="M789.167 241.472c-4.156-33.784-34.911-57.798-68.694-53.641s-57.798 34.911-53.641 68.694c4.156 33.784 34.911 57.798 68.694 53.641s57.798-34.911 53.641-68.694z" />
<glyph unicode="&#xe60c;" d="M727.019 420.659l47.691-5.867-6.377-51.836-47.691 5.867 6.377 51.836z" />
<glyph unicode="&#xe60d;" d="M685.187 80.614l47.691-5.867 6.377 51.836-47.691 5.867-6.377-51.836z" />
<glyph unicode="&#xe60e;" d="M608.618 279.467l-5.867-47.691-51.836 6.377 5.867 47.691 51.836-6.377z" />
<glyph unicode="&#xe60f;" d="M901.752 243.409l-5.867-47.691-51.836 6.377 5.867 47.691 51.836-6.377z" />
<glyph unicode="&#xe610;" d="M661.693 360.406l-36.505-31.242-33.959 39.679 36.505 31.242 33.959-39.679z" />
<glyph unicode="&#xe611;" d="M862.701 129.405l-36.505-31.242-33.959 39.679 36.505 31.242 33.959-39.679z" />
<glyph unicode="&#xe612;" d="M845.92 299.772l-31.242 36.505 39.679 33.959 31.242-36.505-39.679-33.959z" />
<glyph unicode="&#xe613;" d="M598.298 117.646l-31.242 36.505 39.679 33.959 31.242-36.505-39.679-33.959z" />
<glyph unicode="&#xe614;" d="M440.731 122.482c-0.005-0.011-0.011-0.031-0.024-0.044-38.431-84.189-137.833-121.283-222.021-82.851s-121.283 137.833-82.851 222.021c0.006 0.013 0.012 0.033 0.025 0.046 0.004 0.009 0.010 0.029 0.023 0.042 38.431 84.189 137.833 121.283 222.021 82.851s121.283-137.833 82.851-222.021c-0.006-0.013-0.012-0.033-0.025-0.046z" />
<glyph unicode="&#xe615;" d="M364.959 161.457c-17.995-39.421-64.541-56.791-103.962-38.795s-56.791 64.541-38.795 103.962c17.995 39.421 64.541 56.791 103.962 38.795s56.791-64.541 38.795-103.962z" />
<glyph unicode="&#xe616;" d="M358.191 409.622l55.651-25.403-27.612-60.49-55.651 25.403 27.612 60.49z" />
<glyph unicode="&#xe617;" d="M166.874 2.626l55.651-25.403 27.612 60.49-55.651 25.403-27.612-60.49z" />
<glyph unicode="&#xe618;" d="M160.316 276.801l-25.403-55.651-60.49 27.612 25.403 55.651 60.49-27.612z" />
<glyph unicode="&#xe619;" d="M502.391 120.651l-25.403-55.651-60.49 27.612 25.403 55.651 60.49-27.612z" />
<glyph unicode="&#xe61a;" d="M259.172 351.33l-56.296-23.938-26.019 61.195 56.296 23.938 26.019-61.195z" />
<glyph unicode="&#xe61b;" d="M404.493-2.794l-56.296-23.938-26.019 61.195 56.296 23.938 26.019-61.195z" />
<glyph unicode="&#xe61c;" d="M456.211 210.484l-23.938 56.296 61.195 26.019 23.938-56.296-61.195-26.019z" />
<glyph unicode="&#xe61d;" d="M92.538 67.326l-23.938 56.296 61.195 26.019 23.938-56.296-61.195-26.019z" />
<glyph unicode="&#xe61e;" d="M719.656 612.695c0-118.026-95.679-213.706-213.706-213.706s-213.706 95.679-213.706 213.706c0 118.026 95.679 213.706 213.706 213.706s213.706-95.679 213.706-213.706z" />
<glyph unicode="&#xe61f;" d="M611.107 617.785c0-55.267-44.802-100.068-100.068-100.068s-100.068 44.802-100.068 100.068c0 55.267 44.802 100.068 100.068 100.068s100.068-44.802 100.068-100.068z" />
<glyph unicode="&#xe620;" d="M475.421 894.246h78.019v-84.803h-78.019v84.803z" />
<glyph unicode="&#xe621;" d="M475.421 337.93h78.019v84.803h-78.019v-84.803z" />
<glyph unicode="&#xe622;" d="M312.598 643.226v-78.019h-84.803v78.019h84.803z" />
<glyph unicode="&#xe623;" d="M792.164 643.226v-78.019h-84.803v78.019h84.803z" />
<glyph unicode="&#xe624;" d="M382.087 784.187l-52.638-57.587-62.596 57.216 52.638 57.587 62.596-57.216z" />
<glyph unicode="&#xe625;" d="M751.833 451.755l-52.638-57.587-62.596 57.216 52.638 57.587 62.596-57.216z" />
<glyph unicode="&#xe626;" d="M691.011 722.991l-57.587 52.638 57.216 62.596 57.587-52.638-57.216-62.596z" />
<glyph unicode="&#xe627;" d="M328.050 380.384l-57.587 52.638 57.216 62.596 57.587-52.638-57.216-62.596z" />
<glyph unicode="&#xe628;" d="M878.88 226.807c-8.874-72.145-74.554-123.432-146.696-114.558s-123.432 74.554-114.558 146.696c8.874 72.145 74.554 123.432 146.696 114.558s123.432-74.554 114.558-146.696z" />
<glyph unicode="&#xe629;" d="M812.915 238.080c-4.156-33.784-34.911-57.798-68.694-53.641s-57.798 34.911-53.641 68.694c4.156 33.784 34.911 57.798 68.694 53.641s57.798-34.911 53.641-68.694z" />
<glyph unicode="&#xe62a;" d="M750.764 417.268l47.691-5.867-6.377-51.836-47.691 5.867 6.377 51.836z" />
<glyph unicode="&#xe62b;" d="M708.93 77.222l47.691-5.867 6.377 51.836-47.691 5.867-6.377-51.836z" />
<glyph unicode="&#xe62c;" d="M632.363 276.077l-5.867-47.691-51.836 6.377 5.867 47.691 51.836-6.377z" />
<glyph unicode="&#xe62d;" d="M925.497 240.014l-5.867-47.691-51.836 6.377 5.867 47.691 51.836-6.377z" />
<glyph unicode="&#xe62e;" d="M685.438 357.014l-36.505-31.242-33.959 39.679 36.505 31.242 33.959-39.679z" />
<glyph unicode="&#xe62f;" d="M886.446 126.011l-36.505-31.242-33.959 39.679 36.505 31.242 33.959-39.679z" />
<glyph unicode="&#xe630;" d="M869.664 296.378l-31.242 36.505 39.679 33.959 31.242-36.505-39.679-33.959z" />
<glyph unicode="&#xe631;" d="M622.043 114.252l-31.242 36.505 39.679 33.959 31.242-36.505-39.679-33.959z" />
<glyph unicode="&#xe632;" d="M464.475 119.092c-38.431-84.189-137.833-121.283-222.021-82.851s-121.283 137.833-82.851 222.021c38.431 84.189 137.833 121.283 222.021 82.851s121.283-137.833 82.851-222.021z" />
<glyph unicode="&#xe633;" d="M388.704 158.066c-17.995-39.421-64.541-56.791-103.962-38.795s-56.791 64.541-38.795 103.962c17.995 39.421 64.541 56.791 103.962 38.795s56.791-64.541 38.795-103.962z" />
<glyph unicode="&#xe634;" d="M381.937 406.228l55.651-25.403-27.612-60.49-55.651 25.403 27.612 60.49z" />
<glyph unicode="&#xe635;" d="M190.62-0.766l55.651-25.403 27.612 60.49-55.651 25.403-27.612-60.49z" />
<glyph unicode="&#xe636;" d="M184.062 273.411l-25.403-55.651-60.49 27.612 25.403 55.651 60.49-27.612z" />
<glyph unicode="&#xe637;" d="M526.136 117.257l-25.403-55.651-60.49 27.612 25.403 55.651 60.49-27.612z" />
<glyph unicode="&#xe638;" d="M282.918 347.939l-56.296-23.938-26.019 61.195 56.296 23.938 26.019-61.195z" />
<glyph unicode="&#xe639;" d="M428.237-6.185l-56.296-23.938-26.019 61.195 56.296 23.938 26.019-61.195z" />
<glyph unicode="&#xe63a;" d="M479.956 207.094l-23.938 56.296 61.195 26.019 23.938-56.296-61.195-26.019z" />
<glyph unicode="&#xe63b;" d="M116.282 63.933l-23.938 56.296 61.195 26.019 23.938-56.296-61.195-26.019z" />
</font>
</defs>
</svg>
