<?xml version="1.0" encoding="utf-8"?>
<!-- Generator: Adobe Illustrator 21.1.0, SVG Export Plug-In . SVG Version: 6.00 Build 0)  -->
<svg version="1.1" xmlns="http://www.w3.org/2000/svg" xmlns:xlink="http://www.w3.org/1999/xlink" x="0px" y="0px"
	 viewBox="0 0 122 122" style="enable-background:new 0 0 122 122;" xml:space="preserve">
<style type="text/css">
	.st0{fill:#009999;}
	.st1{display:none;}
	.st2{display:inline;}
	.st3{fill:#ED4949;}
</style>
<g id="Layer_2">
	<path class="st0" d="M98.8,24.7v-7H64.1v-5.5h-6v5.5H23.4v7l-22.9,35l1.1,1.7c0.3,0.4,6.5,9.3,24.7,9.3h0.1c18.3,0,24.4-9,24.7-9.3
		l1.1-1.6l-22.8-35v-1h28.7v80.1H35.8v6h50.5v-6H64.1V23.7h28.7v1L70,59.7l1.1,1.6c0.3,0.4,6.5,9.3,24.7,9.3s24.4-8.9,24.7-9.3
		l1.1-1.6L98.8,24.7z M44.6,59.2H8l18.4-28.1L44.6,59.2z M77.5,59.2l18.3-28.1L114,59.2H77.5z"/>
</g>
<g id="Layer_2_1_" class="st1">
	<g transform="translate(0 -1028.4)" class="st2">
		<path class="st3" d="M33.8,1035c-8.4,0-16.8,2.7-23.1,9.3c-12.8,13.1-12.4,33.2,0,46.3l50.3,53.3l50.3-53.3
			c12.4-13.1,12.8-33.2,0-46.3c-12.8-12.5-33.5-12.5-46.3,0l-4.1,4.4l-4.1-4.4C50.5,1037.8,42.1,1035,33.8,1035z"/>
	</g>
</g>
</svg>
