<?xml version="1.0" encoding="utf-8"?>
<!-- Generator: Adobe Illustrator 21.1.0, SVG Export Plug-In . SVG Version: 6.00 Build 0)  -->
<svg version="1.1" id="Layer_2" xmlns="http://www.w3.org/2000/svg" xmlns:xlink="http://www.w3.org/1999/xlink" x="0px" y="0px"
	 viewBox="0 0 122 122" style="enable-background:new 0 0 122 122;" xml:space="preserve">
<style type="text/css">
	.st0{fill:#30B2AF;}
</style>
<path class="st0" d="M98.8,24.7v-7H64.1v-5.5h-6v5.5H23.4v7l-22.9,35l1.1,1.7c0.3,0.4,6.5,9.3,24.7,9.3h0.1c18.3,0,24.4-9,24.7-9.3
	l1.1-1.6l-22.8-35v-1h28.7v80.1H35.8v6h50.5v-6H64.1V23.7h28.7v1L70,59.7l1.1,1.6c0.3,0.4,6.5,9.3,24.7,9.3s24.4-8.9,24.7-9.3
	l1.1-1.6L98.8,24.7z M44.6,59.2H8l18.4-28.1L44.6,59.2z M77.5,59.2l18.3-28.1L114,59.2H77.5z"/>
</svg>
